<svg width="173" height="12" viewBox="0 0 173 12" fill="none" xmlns="http://www.w3.org/2000/svg">
<path d="M2.41635 1.032V11H0.21835V1.032H2.41635ZM5.04726 11V1.032H7.27326L11.3753 7.71V1.032H13.4753V11H11.2913L7.16126 4.308V11H5.04726ZM23.1522 1.032V2.866H18.3082V5.176H22.5222V6.912H18.3082V11H16.1242V1.032H23.1522ZM29.631 0.794C31.087 0.794 32.263 1.27933 33.159 2.25C34.0644 3.21133 34.517 4.47133 34.517 6.03C34.517 7.58867 34.0644 8.84867 33.159 9.81C32.263 10.762 31.0824 11.238 29.617 11.238C28.1424 11.238 26.9524 10.762 26.047 9.81C25.1417 8.84867 24.689 7.58867 24.689 6.03C24.689 4.45267 25.137 3.188 26.033 2.236C26.9384 1.27467 28.1377 0.794 29.631 0.794ZM29.603 2.586C28.7817 2.586 28.1237 2.894 27.629 3.51C27.1437 4.126 26.901 4.952 26.901 5.988C26.901 7.06133 27.1437 7.90133 27.629 8.508C28.1144 9.11467 28.7817 9.42267 29.631 9.432C30.4617 9.432 31.115 9.124 31.591 8.508C32.067 7.892 32.305 7.052 32.305 5.988C32.305 4.94267 32.0624 4.11667 31.577 3.51C31.0917 2.894 30.4337 2.586 29.603 2.586ZM45.4695 9.18L45.8755 9.74C45.1475 10.272 44.4475 10.6547 43.7755 10.888C43.1035 11.1213 42.3755 11.238 41.5915 11.238C40.0329 11.238 38.7542 10.776 37.7555 9.852C36.7009 8.88133 36.1735 7.64933 36.1735 6.156C36.1735 4.644 36.7149 3.37467 37.7975 2.348C38.8802 1.312 40.2149 0.794 41.8015 0.794C43.1922 0.794 44.3262 1.186 45.2035 1.97C46.0902 2.754 46.5335 3.762 46.5335 4.994C46.5335 5.96467 46.2442 6.82333 45.6655 7.57C45.0869 8.30733 44.4149 8.676 43.6495 8.676C43.2855 8.676 42.9962 8.58733 42.7815 8.41C42.5669 8.22333 42.4595 7.97133 42.4595 7.654C42.4595 7.542 42.4689 7.44867 42.4875 7.374C42.0395 8.242 41.3955 8.676 40.5555 8.676C39.9862 8.676 39.5242 8.48 39.1695 8.088C38.8242 7.68667 38.6515 7.16867 38.6515 6.534C38.6515 5.62867 38.9315 4.84 39.4915 4.168C40.0609 3.48667 40.7189 3.146 41.4655 3.146C42.2309 3.146 42.7582 3.46333 43.0475 4.098L43.2435 3.37H44.4335L43.5235 6.492C43.4302 6.828 43.3835 7.08 43.3835 7.248C43.3835 7.62133 43.5749 7.808 43.9575 7.808C44.4149 7.808 44.8255 7.50933 45.1895 6.912C45.5629 6.31467 45.7495 5.652 45.7495 4.924C45.7495 3.916 45.3855 3.09933 44.6575 2.474C43.9295 1.83933 42.9822 1.522 41.8155 1.522C40.4249 1.522 39.2675 1.96533 38.3435 2.852C37.4195 3.73867 36.9575 4.854 36.9575 6.198C36.9575 7.46733 37.3915 8.508 38.2595 9.32C39.1369 10.1227 40.2615 10.524 41.6335 10.524C42.9589 10.524 44.2375 10.076 45.4695 9.18ZM42.6135 4.924C42.6135 4.65333 42.5342 4.434 42.3755 4.266C42.2262 4.08867 42.0209 4 41.7595 4C41.2742 4 40.8682 4.30333 40.5415 4.91C40.2149 5.51667 40.0515 6.08133 40.0515 6.604C40.0515 6.98667 40.1262 7.28533 40.2755 7.5C40.4342 7.70533 40.6535 7.808 40.9335 7.808C41.2602 7.808 41.5589 7.62133 41.8295 7.248C42.1095 6.87467 42.3102 6.47333 42.4315 6.044C42.5529 5.60533 42.6135 5.232 42.6135 4.924ZM55.6728 9.124V11H48.6168V1.032H50.8008V9.124H55.6728ZM65.0916 1.032V2.824H59.7856V4.994H64.6576V6.716H59.7856V9.166H65.1896V11H57.6156V1.032H65.0916ZM72.3497 1.018L76.1437 11H73.8477L73.0637 8.774H69.3537L68.5417 11H66.3017L70.0957 1.018H72.3497ZM72.5317 7.178L71.2157 3.468L69.8857 7.178H72.5317ZM77.6917 11V1.032H81.7237C83.2731 1.032 84.4631 1.46133 85.2937 2.32C86.1337 3.17867 86.5537 4.41067 86.5537 6.016C86.5537 7.62133 86.1337 8.85333 85.2937 9.712C84.4631 10.5707 83.2731 11 81.7237 11H77.6917ZM79.8617 9.18H81.4577C83.3897 9.18 84.3557 8.12533 84.3557 6.016C84.3557 4.99867 84.1131 4.21933 83.6277 3.678C83.1517 3.12733 82.4284 2.852 81.4577 2.852H79.8617V9.18ZM92.7447 6.296V8.074H88.5307V6.296H92.7447ZM104.032 5.61V11H102.646L102.436 9.866C101.689 10.7807 100.691 11.238 99.4399 11.238C98.0492 11.238 96.9198 10.7573 96.0518 9.796C95.1838 8.83467 94.7498 7.58867 94.7498 6.058C94.7498 4.518 95.2072 3.26267 96.1219 2.292C97.0365 1.312 98.2125 0.821999 99.6499 0.821999C100.789 0.821999 101.75 1.144 102.534 1.788C103.318 2.42267 103.775 3.26267 103.906 4.308H101.792C101.689 3.78533 101.447 3.37933 101.064 3.09C100.681 2.80067 100.201 2.656 99.6219 2.656C98.7912 2.656 98.1379 2.95933 97.6619 3.566C97.1859 4.16333 96.9479 4.994 96.9479 6.058C96.9479 7.14067 97.1859 7.98533 97.6619 8.592C98.1472 9.18933 98.8238 9.488 99.6918 9.488C100.373 9.488 100.933 9.28267 101.372 8.872C101.811 8.452 102.044 7.906 102.072 7.234H99.8459V5.61H104.032ZM106.563 1.032H111.519C112.508 1.032 113.316 1.26533 113.941 1.732C114.566 2.19867 114.879 2.908 114.879 3.86C114.879 4.43867 114.739 4.94733 114.459 5.386C114.179 5.81533 113.792 6.12333 113.297 6.31C114.156 6.48733 114.646 7.262 114.767 8.634C114.767 8.68067 114.776 8.82533 114.795 9.068C114.814 9.31067 114.832 9.50667 114.851 9.656C114.87 9.796 114.893 9.96867 114.921 10.174C114.949 10.3793 114.991 10.552 115.047 10.692C115.103 10.832 115.168 10.9347 115.243 11H112.975C112.9 10.8507 112.844 10.664 112.807 10.44C112.77 10.2067 112.737 9.91267 112.709 9.558C112.681 9.194 112.667 8.99333 112.667 8.956C112.592 8.256 112.415 7.77067 112.135 7.5C111.864 7.22933 111.379 7.094 110.679 7.094H108.733V11H106.563V1.032ZM108.733 2.754V5.512H110.805C111.412 5.512 111.883 5.41867 112.219 5.232C112.564 5.036 112.737 4.658 112.737 4.098C112.737 3.57533 112.569 3.22067 112.233 3.034C111.906 2.84733 111.463 2.754 110.903 2.754H108.733ZM121.79 0.794C123.246 0.794 124.422 1.27933 125.318 2.25C126.224 3.21133 126.676 4.47133 126.676 6.03C126.676 7.58867 126.224 8.84867 125.318 9.81C124.422 10.762 123.242 11.238 121.776 11.238C120.302 11.238 119.112 10.762 118.206 9.81C117.301 8.84867 116.848 7.58867 116.848 6.03C116.848 4.45267 117.296 3.188 118.192 2.236C119.098 1.27467 120.297 0.794 121.79 0.794ZM121.762 2.586C120.941 2.586 120.283 2.894 119.788 3.51C119.303 4.126 119.06 4.952 119.06 5.988C119.06 7.06133 119.303 7.90133 119.788 8.508C120.274 9.11467 120.941 9.42267 121.79 9.432C122.621 9.432 123.274 9.124 123.75 8.508C124.226 7.892 124.464 7.052 124.464 5.988C124.464 4.94267 124.222 4.11667 123.736 3.51C123.251 2.894 122.593 2.586 121.762 2.586ZM137.363 1.032V7.024C137.363 8.452 137.018 9.50667 136.327 10.188C135.646 10.86 134.577 11.196 133.121 11.196C131.646 11.196 130.559 10.8553 129.859 10.174C129.168 9.48333 128.823 8.424 128.823 6.996V1.032H131.007V6.996C131.007 7.808 131.161 8.41 131.469 8.802C131.777 9.194 132.337 9.39 133.149 9.39C133.933 9.39 134.465 9.194 134.745 8.802C135.034 8.41 135.179 7.808 135.179 6.996V1.032H137.363ZM139.97 1.032H144.268C145.388 1.032 146.275 1.30267 146.928 1.844C147.591 2.376 147.922 3.174 147.922 4.238C147.922 5.28333 147.595 6.07667 146.942 6.618C146.289 7.15 145.435 7.416 144.38 7.416H142.14V11H139.97V1.032ZM142.14 2.824V5.694H144.086C145.225 5.694 145.794 5.218 145.794 4.266C145.794 3.30467 145.229 2.824 144.1 2.824H142.14ZM150.275 8.816V11H148.063V8.816H150.275ZM152.87 1.032H157.826C158.815 1.032 159.622 1.26533 160.248 1.732C160.873 2.19867 161.186 2.908 161.186 3.86C161.186 4.43867 161.046 4.94733 160.766 5.386C160.486 5.81533 160.098 6.12333 159.604 6.31C160.462 6.48733 160.952 7.262 161.074 8.634C161.074 8.68067 161.083 8.82533 161.102 9.068C161.12 9.31067 161.139 9.50667 161.158 9.656C161.176 9.796 161.2 9.96867 161.228 10.174C161.256 10.3793 161.298 10.552 161.354 10.692C161.41 10.832 161.475 10.9347 161.55 11H159.282C159.207 10.8507 159.151 10.664 159.114 10.44C159.076 10.2067 159.044 9.91267 159.016 9.558C158.988 9.194 158.974 8.99333 158.974 8.956C158.899 8.256 158.722 7.77067 158.442 7.5C158.171 7.22933 157.686 7.094 156.986 7.094H155.04V11H152.87V1.032ZM155.04 2.754V5.512H157.112C157.718 5.512 158.19 5.41867 158.526 5.232C158.871 5.036 159.044 4.658 159.044 4.098C159.044 3.57533 158.876 3.22067 158.54 3.034C158.213 2.84733 157.77 2.754 157.21 2.754H155.04ZM172.073 1.032V7.024C172.073 8.452 171.728 9.50667 171.037 10.188C170.356 10.86 169.287 11.196 167.831 11.196C166.356 11.196 165.269 10.8553 164.569 10.174C163.878 9.48333 163.533 8.424 163.533 6.996V1.032H165.717V6.996C165.717 7.808 165.871 8.41 166.179 8.802C166.487 9.194 167.047 9.39 167.859 9.39C168.643 9.39 169.175 9.194 169.455 8.802C169.744 8.41 169.889 7.808 169.889 6.996V1.032H172.073Z" fill="white"/>
<a href="mailto:info@scf-group.ru">
<rect fill="black" fill-opacity="0" x="0.25235" y="3.035" width="173.745" height="13.93"/>
</a>
</svg>
